<svg xmlns="http://www.w3.org/2000/svg"><symbol fill="none" id="sprite-calendar" viewBox="0 0 48 48"><title>calendar</title><path d="M41.5 6.938h-5.688V4.313a1.313 1.313 0 0 0-2.624-.001v2.626h-7.876V4.313a1.312 1.312 0 1 0-2.625-.001v2.626h-7.875V4.313a1.312 1.312 0 1 0-2.624-.001v2.626H6.5A3.5 3.5 0 0 0 3 10.437v31.062A3.5 3.5 0 0 0 6.5 45h35a3.5 3.5 0 0 0 3.5-3.5V10.437a3.5 3.5 0 0 0-3.5-3.499Zm.875 34.563a.875.875 0 0 1-.873.875H6.5a.875.875 0 0 1-.875-.875V10.438a.875.875 0 0 1 .875-.873h5.688v2.625a1.313 1.313 0 0 0 2.624.002V9.565h7.876v2.625a1.313 1.313 0 0 0 2.625.002V9.565h7.875v2.625a1.313 1.313 0 0 0 2.624.002V9.565H41.5a.875.875 0 0 1 .873.873l.002 31.063Z" fill="#000"/><path d="M12 19h5.25v3.938H12V19Zm0 6.563h5.25V29.5H12v-3.938Zm0 6.562h5.25v3.938H12v-3.938Zm9.188 0h5.25v3.938h-5.25v-3.938Zm0-6.563h5.25V29.5h-5.25v-3.938Zm0-6.562h5.25v3.938h-5.25V19Zm9.187 13.125h5.25v3.938h-5.25v-3.938Zm0-6.563h5.25V29.5h-5.25v-3.938Zm0-6.562h5.25v3.938h-5.25V19Z" fill="#000"/></symbol><symbol fill="none" id="sprite-clocks" viewBox="0 0 48 48"><title>clocks</title><path d="m15.284 39.093-2.821 5.191m19.747-5.191 2.821 5.191m-11.284-2.877c9.348 0 16.926-7.73 16.926-17.265S33.095 6.877 23.747 6.877c-9.348 0-16.926 7.73-16.926 17.265s7.578 17.265 16.926 17.265Z" stroke="#000" stroke-width="3" stroke-linecap="round" stroke-linejoin="round"/><path d="M7.387 19.54a8.62 8.62 0 0 1-2.857-3.9 8.796 8.796 0 0 1-.334-4.857 8.683 8.683 0 0 1 2.296-4.268 8.415 8.415 0 0 1 4.195-2.323 8.307 8.307 0 0 1 4.76.362 8.483 8.483 0 0 1 3.81 2.931m4.49-.608V4m0 11.51v8.632m0 0 5.984 6.104M40.107 19.54a8.62 8.62 0 0 0 2.857-3.9 8.795 8.795 0 0 0 .334-4.857 8.683 8.683 0 0 0-2.296-4.268 8.415 8.415 0 0 0-4.194-2.323 8.307 8.307 0 0 0-4.76.362 8.482 8.482 0 0 0-3.811 2.931" stroke="#000" stroke-width="3" stroke-linecap="round" stroke-linejoin="round"/></symbol><symbol fill="none" id="sprite-people" viewBox="0 0 48 42"><title>people</title><path d="M15.001 0a8.263 8.263 0 0 0-3.444.757 8.999 8.999 0 0 0-2.92 2.157A10.075 10.075 0 0 0 6.686 6.14 10.862 10.862 0 0 0 6 9.947c0 1.307.233 2.6.686 3.807a10.076 10.076 0 0 0 1.95 3.227 8.999 8.999 0 0 0 2.92 2.156c1.093.5 2.263.758 3.445.758 2.387 0 4.677-1.048 6.365-2.914 1.688-1.865 2.636-4.395 2.636-7.034 0-2.638-.948-5.168-2.636-7.033C19.678 1.048 17.388 0 15 0Zm-6 9.947c0-.87.155-1.733.457-2.537a6.717 6.717 0 0 1 1.3-2.152 5.998 5.998 0 0 1 1.947-1.437 5.509 5.509 0 0 1 2.296-.505c.788 0 1.569.171 2.296.505a5.98 5.98 0 0 1 1.947 1.437c.557.616 1 1.347 1.301 2.152.301.804.457 1.666.457 2.537 0 1.76-.632 3.446-1.758 4.69-1.125 1.243-2.651 1.942-4.243 1.942-1.591 0-3.117-.699-4.243-1.942-1.125-1.244-1.757-2.93-1.757-4.69Zm27.002-5.526c-1.857 0-3.637.815-4.95 2.266-1.313 1.451-2.05 3.419-2.05 5.47 0 2.053.737 4.02 2.05 5.472 1.313 1.45 3.093 2.266 4.95 2.266 1.857 0 3.637-.815 4.95-2.266 1.313-1.451 2.05-3.42 2.05-5.471 0-2.052-.737-4.02-2.05-5.47-1.313-1.452-3.093-2.267-4.95-2.267Zm-4 7.737c0-1.173.421-2.297 1.171-3.126.75-.83 1.768-1.295 2.829-1.295 1.061 0 2.078.466 2.829 1.295.75.829 1.171 1.953 1.171 3.126 0 1.172-.421 2.297-1.171 3.126-.75.83-1.768 1.295-2.829 1.295-1.061 0-2.078-.466-2.829-1.295-.75-.83-1.171-1.954-1.171-3.126ZM0 29.289c0-1.319.474-2.584 1.318-3.517.844-.932 1.989-1.456 3.182-1.456h21.002c1.194 0 2.338.524 3.182 1.457.844.932 1.319 2.197 1.319 3.517v1.173a5.46 5.46 0 0 1-.035.535 10.93 10.93 0 0 1-.22 1.353 11.793 11.793 0 0 1-1.734 4.012C25.986 39.354 22.118 42 15.001 42c-7.116 0-10.985-2.646-13.013-5.637a11.794 11.794 0 0 1-1.732-4.012A10.99 10.99 0 0 1 0 30.463V29.29Zm3 1.095v.04l.018.22a7 7 0 0 0 .148.902 8.345 8.345 0 0 0 1.22 2.828c1.348 1.982 4.23 4.31 10.615 4.31s9.267-2.328 10.613-4.31a8.276 8.276 0 0 0 1.22-2.828c.084-.368.14-.744.166-1.122l.002-.04v-1.095c0-.44-.158-.86-.44-1.172a1.431 1.431 0 0 0-1.06-.485H4.5a1.43 1.43 0 0 0-1.06.485A1.75 1.75 0 0 0 3 29.29v1.095Zm27.203 6.355c1.546.524 3.454.84 5.796.84 5.54 0 8.637-1.76 10.319-3.882a7.954 7.954 0 0 0 1.46-2.907c.114-.434.187-.88.218-1.33l.004-.104v-.067c0-1.319-.474-2.584-1.318-3.517-.844-.932-1.989-1.456-3.182-1.456H30.19a7.438 7.438 0 0 1 1.637 3.316h11.675c.394 0 .773.171 1.053.477.281.306.441.722.447 1.158-.018.201-.053.4-.104.593a4.519 4.519 0 0 1-.84 1.653c-.942 1.194-3.095 2.75-8.059 2.75-1.882 0-3.36-.223-4.522-.568a14.168 14.168 0 0 1-1.274 3.044Z" fill="#000"/></symbol></svg>