<svg width="16" height="16" fill="none" xmlns="http://www.w3.org/2000/svg"><path d="M13.189 8.053c-.11-.391-.233-.804-.37-1.25A15.365 15.365 0 0 1 12 3.334a.667.667 0 0 1 1.333 0 .667.667 0 1 0 1.334 0 2 2 0 1 0-4 0 7.11 7.11 0 0 0 .212 1.509l-3.2 2.491-3.698-2.666H6a.667.667 0 1 0 0-1.334H3.98a1.313 1.313 0 0 0-.774 2.373l3.38 2.475-.958.746a3.303 3.303 0 1 0 .767 1.092l4.859-3.78c.094.318.485 1.59.57 1.882a3.33 3.33 0 1 0 1.365-.066v-.002Zm-9.856 5.28a2 2 0 1 1 0-4 2 2 0 0 1 0 4Zm9.334 0a2 2 0 1 1 0-3.999 2 2 0 0 1 0 4Z" fill="#3922C5"/></svg>